HIERARCHY
ROOT Hips
{
	OFFSET	0.00	0.00	0.00
	CHANNELS 6 Xposition Yposition Zposition Zrotation Xrotation Yrotation
	JOINT Spine
	{
		OFFSET	 0.00	0.01	 0.00
		CHANNELS 3 Zrotation Xrotation Yrotation
		JOINT Spine1
		{
			OFFSET	 0.00	 2.45913012437421	 0.00
			CHANNELS 3 Zrotation Xrotation Yrotation
            JOINT Neck
            {
                OFFSET	 0.00	 2.48462964506057	 0.00
                CHANNELS 3 Zrotation Xrotation Yrotation
                JOINT Head
                {
                    OFFSET	 0.00	 0.927524780924562	 0.00
                    CHANNELS 3 Zrotation Xrotation Yrotation
                    End Site 
                    {
                        OFFSET	 0.00	 1.14999962169752	 0.00
                    }
                }
            }
			JOINT LeftShoulder
			{
				OFFSET	 0.00	 2.48462964506057	 0.00
				CHANNELS 3 Zrotation Xrotation Yrotation
				JOINT LeftUpArm
				{
					OFFSET	 0.00	 1.24881979654096	 0.00
					CHANNELS 3 Zrotation Xrotation Yrotation
					JOINT LeftForeArm
					{
						OFFSET	 0.00	2.59758046908119	 0.00
						CHANNELS 3 Zrotation Xrotation Yrotation
						JOINT LeftHand
						{
							OFFSET	 0.00	2.45542024364365	 0.00
							CHANNELS 3 Zrotation Xrotation Yrotation
							JOINT LeftHandThumb 
							{
								OFFSET	 0.00	0.00	 0.00
								CHANNELS 3 Zrotation Xrotation Yrotation
								End Site
								{
									OFFSET	 0.00	0.00	1.00000003353624
								}
							}
							JOINT L_Wrist_End 
							{
								OFFSET	 0.00	0.99999967115358	 0.00
								CHANNELS 3 Zrotation Xrotation Yrotation
								End Site 
								{
									OFFSET	 0.00	 0.00	 0.00
								}
							}
						}
					}
				}
			}
			JOINT RightShoulder
			{
				OFFSET	 0.00	 2.48462964506057	 0.00
				CHANNELS 3 Zrotation Xrotation Yrotation
				JOINT RightUpArm
				{
					OFFSET	 0.00	 1.24881979654096	 0.00
					CHANNELS 3 Zrotation Xrotation Yrotation
					JOINT RightForeArm
					{
						OFFSET	 0.00	2.59758046908119	 0.00
						CHANNELS 3 Zrotation Xrotation Yrotation
						JOINT RightHand
						{
							OFFSET	 0.00	2.45542024364365	 0.00
							CHANNELS 3 Zrotation Xrotation Yrotation
							JOINT RightHandThumb 
							{
								OFFSET	 0.00	0.00	 0.00
								CHANNELS 3 Zrotation Xrotation Yrotation
								End Site
								{
									OFFSET	 0.00	0.00	1.00000003353624
								}
							}
							JOINT R_Wrist_End 
							{
								OFFSET	 0.00	0.99999967115358	 0.00
								CHANNELS 3 Zrotation Xrotation Yrotation
								End Site 
								{
									OFFSET	 0.00	 0.00	 0.00
								}
							}
						}
					}
				}
			}
		}
	}
	JOINT LeftUpLeg
	{
		OFFSET	 1.2719394002717	 0.00	 0.00
		CHANNELS 3 Zrotation Xrotation Yrotation
		JOINT LeftLowLeg
		{
			OFFSET	 0.00	-4.3429100912261	 0.00
			CHANNELS 3 Zrotation Xrotation Yrotation
			JOINT LeftFoot
			{
				OFFSET	 0.00	-4.48767017425826	 0.00
				CHANNELS 3 Zrotation Xrotation Yrotation
				JOINT LeftToeBase
                {
                    OFFSET	 0.00	0.00	 1.51507020887566
                    CHANNELS 3 Zrotation Xrotation Yrotation
                    End Site 
                    {
                        OFFSET	 0.00	0.00	 0.75000010571191
                    }
                }
			}
		}
	}
	JOINT RightUpLeg
	{
		OFFSET	 -1.2719393604653	 0.00	 0.00
		CHANNELS 3 Zrotation Xrotation Yrotation
		JOINT RightLowLeg
		{
			OFFSET	 0.00	-4.3429100912261	 0.00
			CHANNELS 3 Zrotation Xrotation Yrotation
			JOINT RightFoot
			{
				OFFSET	 0.00	-4.48767017425826	 0.00
				CHANNELS 3 Zrotation Xrotation Yrotation
				JOINT RightToeBase
                {
                    OFFSET	 0.00	0.00	 1.51507020887566
                    CHANNELS 3 Zrotation Xrotation Yrotation
                    End Site 
                    {
                        OFFSET	 0.00	0.00	 0.749999965609858
                    }
                }   
			}
		}
	}
}
MOTION 
Frames:	10 
Frame Time: 0.02 
 0.6992729949951172 19.21989990234375 9.280180053710938 40.9082 86.1167 -771.969 2.58182 -15.783 1.1824 -7.68946 21.2684 4.72145 13.9159 46.882 355.357 -58.7207 -82.8745 309.028 -115.615295 -1.86174 366.158 -44.2217 9.04444 31.6968 0.0 21.1543 0.0 11.179 -12.8658 -2.62628 0.0 0.0 0.0 0.0 0.0 0.0 122.7146 -2.21407 -363.735 44.7819 12.0653 -359.62 0.0 16.9109 0.0 2.40531 -13.3757 30.5982 0.0 0.0 0.0 0.0 0.0 0.0 -4.72205 0.951544 -728.729 0.0 19.7169 0.0 -16.7069 -9.993799 13.0856 0.0 -19.395031 0.0 2.02585 -1.30084 18.7224 0.0 23.6024 0.0 31.4321 -14.687401 -5.99385 0.0 -16.24706 0.0 
  0.6960130310058594 19.2147998046875 9.279600219726563 41.5701 86.14 -772.558 2.61972 -15.91 1.16749 -7.68109 21.3015 4.69366 13.8348 46.9172 355.421 -58.2517 -82.8032 309.528 -115.6312 -1.89802 366.126 -44.2332 9.06692 31.7181 0.0 21.1436 0.0 11.1965 -12.912 -2.663 0.0 0.0 0.0 0.0 0.0 0.0 122.6847 -2.17042 -363.578 44.805 11.9117 -359.609 0.0 16.908 0.0 2.4333 -13.2675 30.735 0.0 0.0 0.0 0.0 0.0 0.0 -4.71035 0.905464 -728.733 0.0 19.7689 0.0 -16.803 -10.0242 12.9757 0.0 -19.38168 0.0 2.0329 -1.29565 18.6791 0.0 23.5864 0.0 31.4094 -14.7293 -6.01456 0.0 -16.25509 0.0 
  0.6926200103759765 19.210799560546874 9.278930053710937 41.3903 86.12 -772.308 2.65449 -15.9682 1.14804 -7.6778 21.3625 4.66355 13.7305 46.9615 355.513 -57.9238 -82.7386 309.851 -115.6094 -1.91278 366.13 -44.2776 9.07617 31.7842 0.0 21.1728 0.0 11.4139 -12.8681 -2.64211 0.0 0.0 0.0 0.0 0.0 0.0 122.686905 -2.18005 -363.529 44.7682 11.9099 -359.687 0.0 16.9549 0.0 2.42426 -13.3809 30.7296 0.0 0.0 0.0 0.0 0.0 0.0 -4.70814 0.92994 -728.821 0.0 19.8095 0.0 -16.8172 -10.0404 12.9834 0.0 -19.45353 0.0 2.05217 -1.2363 18.6647 0.0 23.5995 0.0 31.3796 -14.789499 -6.06416 0.0 -16.25791 0.0 
  0.6890779876708985 19.20780029296875 9.277470092773438 40.5236 86.1137 -771.319 2.71249 -15.9447 1.11503 -7.64766 21.3679 4.58971 13.5996 47.0009 355.638 -57.9583 -82.7013 309.793 -115.5981 -1.92359 366.056 -44.3021 9.00311 31.6155 0.0 21.2847 0.0 11.153 -13.0347 -2.59187 0.0 0.0 0.0 0.0 0.0 0.0 122.6671 -2.2395 -363.57 44.7696 12.0223 -359.53 0.0 16.912 0.0 2.38434 -13.2344 30.9138 0.0 0.0 0.0 0.0 0.0 0.0 -4.65363 0.841548 -728.673 0.0 20.1077 0.0 -16.9154 -10.1056 12.7237 0.0 -19.44226 0.0 2.12901 -1.16191 18.6747 0.0 23.652 0.0 31.3698 -14.875099 -6.15856 0.0 -16.2401 0.0 
  0.6857009887695312 19.204000244140627 9.276480102539063 40.3203 86.1185 -770.966 2.73188 -15.9787 1.05544 -7.61038 21.3986 4.5283 13.6083 46.9943 355.616 -57.8563 -82.6839 309.91 -115.6146 -1.99198 366.062 -44.3052 9.06288 31.5928 0.0 21.2715 0.0 11.0753 -12.9378 -2.5703 0.0 0.0 0.0 0.0 0.0 0.0 122.6767 -2.31375 -363.665 44.6967 12.1745 -359.524 0.0 16.9401 0.0 2.33675 -13.3054 31.0942 0.0 0.0 0.0 0.0 0.0 0.0 -4.64482 0.798709 -728.888 0.0 20.2511 0.0 -16.7498 -10.1353 12.8573 0.0 -19.48772 0.0 2.13869 -1.08618 18.4762 0.0 23.5986 0.0 31.3294 -14.882999 -6.13132 0.0 -16.23487 0.0 
  0.6847740173339844 19.1993994140625 9.27656982421875 39.9095 86.0099 -770.446 2.8131 -15.9432 1.10558 -7.76219 21.3968 4.45655 13.88 47.0536 355.349 -57.5124 -82.7011 310.373 -115.5728 -1.98974 366.075 -44.2644 8.9603 31.4602 0.0 21.3857 0.0 10.9824 -12.9163 -2.43634 0.0 0.0 0.0 0.0 0.0 0.0 122.7104 -2.20475 -363.525 44.7157 11.9294 -359.398 0.0 17.0078 0.0 2.32934 -13.2466 31.2766 0.0 0.0 0.0 0.0 0.0 0.0 -4.75977 1.00002 -729.436 0.0 20.0929 0.0 -16.9465 -10.2269 13.151 0.0 -19.46611 0.0 2.0598 -0.943581 18.3605 0.0 23.5885 0.0 31.2833 -14.9189 -6.09887 0.0 -16.2276 0.0 
  0.6827420043945313 19.19699951171875 9.275709838867188 39.8464 85.9946 -770.251 2.82573 -15.9077 1.04775 -7.71067 21.3452 4.38226 13.86 47.1062 355.349 -57.518 -82.6622 310.336 -115.6643 -1.99325 366.056 -44.1966 8.92039 31.5996 0.0 21.3053 0.0 11.1246 -12.8997 -2.48691 0.0 0.0 0.0 0.0 0.0 0.0 122.7006 -2.2435 -363.481 44.6653 11.9108 -359.478 0.0 17.0774 0.0 2.21278 -13.2708 31.6651 0.0 0.0 0.0 0.0 0.0 0.0 -4.80202 1.00021 -729.831 0.0 20.1539 0.0 -16.948 -10.319401 13.3775 0.0 -19.48194 0.0 2.05303 -0.866796 18.3041 0.0 23.5452 0.0 31.5633 -15.030399 -5.89764 0.0 -16.0932 0.0 
  0.6811910247802735 19.195 9.274869995117188 39.9184 85.9959 -770.187 2.83319 -15.8811 1.01101 -7.65985 21.2791 4.33418 13.9815 47.1247 355.214 -57.348 -82.6503 310.444 -115.6735 -2.01687 366.119 -44.1668 8.90171 31.5542 0.0 21.3818 0.0 11.133 -12.9695 -2.39114 0.0 0.0 0.0 0.0 0.0 0.0 122.691696 -2.34482 -363.465 44.6132 11.9542 -359.496 0.0 17.1264 0.0 2.1724 -13.1868 31.3333 0.0 0.0 0.0 0.0 0.0 0.0 -4.81679 0.933538 -730.008 0.0 20.2875 0.0 -16.9664 -10.379299 13.4119 0.0 -19.5057 0.0 2.03575 -0.802551 18.2114 0.0 23.4654 0.0 31.3358 -14.989201 -6.04337 0.0 -16.27074 0.0 
  0.6801219940185547 19.194300537109374 9.274340209960938 40.9174 86.0714 -771.068 2.8595 -15.8701 0.990246 -7.63085 21.1218 4.25862 14.2719 47.1686 354.914 -57.3334 -82.6789 310.481 -115.6438 -2.10906 366.052 -44.177 8.81134 31.6057 0.0 21.4433 0.0 11.1813 -12.9616 -2.18988 0.0 0.0 0.0 0.0 0.0 0.0 122.7003 -2.38111 -363.39 44.572 11.8493 -359.513 0.0 17.2306 0.0 2.15408 -13.1057 31.1764 0.0 0.0 0.0 0.0 0.0 0.0 -4.8258 0.7761 -730.263 0.0 20.4046 0.0 -16.9321 -10.444599 13.535 0.0 -19.516651 0.0 2.0291 -0.843855 18.0856 0.0 23.3723 0.0 31.3038 -14.9625 -6.02519 0.0 -16.33227 0.0 
  0.6796669769287109 19.194599609375 9.2739599609375 42.6103 86.1976 -772.662 2.88477 -15.8809 0.985703 -7.5651 20.9238 4.20969 14.583 47.2134 354.573 -57.3857 -82.6939 310.457 -115.617096 -2.18139 365.905 -44.2079 8.66746 31.7581 0.0 21.3962 0.0 11.2239 -12.6354 -1.95977 0.0 0.0 0.0 0.0 0.0 0.0 122.6694 -2.36082 -363.141 44.5735 11.5304 -359.631 0.0 17.3728 0.0 2.06241 -13.0833 31.0211 0.0 0.0 0.0 0.0 0.0 0.0 -4.81153 0.52821 -730.412 0.0 20.5522 0.0 -17.0179 -10.521799 13.4991 0.0 -19.42106 0.0 2.0435 -0.963292 18.0351 0.0 23.2975 0.0 31.3513 -14.974001 -6.00247 0.0 -16.3228 0.0 
